<?xml version="1.0" encoding="UTF-8"?>
<svg version="1.1" xmlns="http://www.w3.org/2000/svg" width="1231" height="855">
<path d="M0 0 C406.23 0 812.46 0 1231 0 C1231 282.15 1231 564.3 1231 855 C824.77 855 418.54 855 0 855 C0 572.85 0 290.7 0 0 Z " fill="#FEFEFE" transform="translate(0,0)"/>
<path d="M0 0 C2.86160209 1.39754982 5.3599557 2.89314574 7.9140625 4.80078125 C9.04110596 5.63778564 9.04110596 5.63778564 10.19091797 6.49169922 C10.99416504 7.09256348 11.79741211 7.69342773 12.625 8.3125 C14.34836326 9.59324904 16.07233554 10.87317892 17.796875 12.15234375 C19.10495117 13.12276611 19.10495117 13.12276611 20.43945312 14.11279297 C24.22542101 16.90317548 28.0508208 19.63737671 31.875 22.375 C39.39357006 27.7732454 46.76092979 33.35526432 54.10839844 38.98339844 C62.21612986 45.18692872 70.42200523 51.24948816 78.65722656 57.28222656 C89.78365263 65.44036889 89.78365263 65.44036889 92.48956221 67.55430305 C96.52629935 70.64877164 100.32132158 73.26542845 105.00492573 75.27668953 C110.94143006 78.11375121 115.53800944 81.2949501 119 87 C122.49059873 99.39829632 121.50607447 112.89991723 121.2897898 125.6547482 C121.21976061 131.01938385 121.26011562 136.38336114 121.28674316 141.74822998 C121.31786241 151.03174873 121.27978429 160.31288788 121.194067 169.596035 C121.07024103 183.01727488 121.0517629 196.43705311 121.05860243 209.85878719 C121.06685671 231.63636389 120.99047716 253.41278259 120.8605957 275.18994141 C120.73464569 296.33841211 120.64872813 317.4864238 120.61645508 338.63525391 C120.61445033 339.93987984 120.61244558 341.24450577 120.61038008 342.58866583 C120.60056869 349.13389934 120.59154229 355.67913365 120.58290613 362.22436881 C120.51029863 416.48356766 120.30022196 470.74161608 120 525 C121.98 525 123.96 525 126 525 C126.33 483.75 126.66 442.5 127 400 C141.355 399.505 141.355 399.505 156 399 C157.81497382 397.18502618 157.17235393 394.36404428 157.20532227 391.91967773 C157.22526749 390.61840439 157.24521271 389.31713104 157.26576233 387.97642517 C157.28274799 386.5454826 157.29962675 385.11453875 157.31640625 383.68359375 C157.33696906 382.2277008 157.35796534 380.77181391 157.37937927 379.31593323 C157.43466961 375.47727353 157.48404802 371.63855935 157.53222656 367.79980469 C157.59120513 363.19757351 157.65747124 358.59544228 157.72252655 353.99329376 C157.82062364 346.99559003 157.90941953 339.99782327 158 333 C168.23 332.67 178.46 332.34 189 332 C188.98839844 328.65955566 188.97679687 325.31911133 188.96484375 321.87744141 C188.93228242 310.82122529 188.94373506 299.76536708 188.97665405 288.70916176 C188.99579309 282.00785064 188.99920133 275.30724932 188.96923828 268.60595703 C188.94084944 262.1346324 188.95148724 255.6644248 188.98880005 249.1931572 C188.99622722 246.72852176 188.98976437 244.26380278 188.96896362 241.79924393 C188.80055178 220.05163235 188.80055178 220.05163235 193.83984375 213.63427734 C195.93725586 211.64584351 195.93725586 211.64584351 198 210 C199.19740397 208.80148032 200.38663046 207.59465426 201.5625 206.375 C202.42488281 205.5396875 202.42488281 205.5396875 203.3046875 204.6875 C205.02072298 202.97937251 206.6063117 201.2082618 208.1875 199.375 C211.30334755 195.76424154 214.50982116 192.24871469 217.75 188.75 C218.26433594 188.19449463 218.77867187 187.63898926 219.30859375 187.06665039 C220.35683478 185.93480431 221.40517489 184.80304999 222.45361328 183.67138672 C224.87162812 181.05791504 227.2808656 178.43645021 229.6875 175.8125 C230.1414917 175.3179834 230.5954834 174.8234668 231.06323242 174.31396484 C233.92419955 171.19187565 236.74856337 168.03944453 239.5625 164.875 C244.17388915 159.74753481 248.84103363 154.58358071 254 150 C254.66 150 255.32 150 256 150 C256 208.08 256 266.16 256 326 C262.6 326 269.2 326 276 326 C277.64962097 327.64962097 277.13207713 329.56660951 277.1386652 331.83949375 C277.14413964 332.89347026 277.14961409 333.94744678 277.15525442 335.03336197 C277.15672158 336.79159229 277.15672158 336.79159229 277.15821838 338.58534241 C277.16315636 339.81942964 277.16809434 341.05351688 277.17318195 342.3250007 C277.18593979 345.76602551 277.19419651 349.20700942 277.20060861 352.64804852 C277.2085896 356.35291727 277.22229524 360.0577652 277.23532104 363.76261902 C277.25711657 370.18670566 277.27524976 376.61079438 277.29092598 383.03489876 C277.31359667 392.32318206 277.34174332 401.61144235 277.37124526 410.89970618 C277.4189556 425.9677139 277.46221042 441.035731 277.50268555 456.10375977 C277.54202299 470.74471773 277.58344499 485.38566733 277.62768555 500.02661133 C277.63040982 500.92842127 277.63313409 501.83023121 277.63594092 502.75936873 C277.64962011 507.28328771 277.66334044 511.80720658 277.67708123 516.33112538 C277.79110005 553.88739958 277.89789741 591.4436916 278 629 C279.65 629 281.3 629 283 629 C283.00423194 628.40308885 283.00846388 627.80617769 283.01282406 627.19117832 C283.11599581 612.68682264 283.22461307 598.18251536 283.33933926 583.6782465 C283.39468709 576.66417695 283.44817159 569.65010232 283.49731445 562.63598633 C283.54470105 555.87328066 283.59722072 549.11063303 283.65294075 542.34799004 C283.67339935 539.76149229 283.69210648 537.17498011 283.70907402 534.58845711 C283.73304069 530.97957232 283.76310547 527.37078799 283.79467773 523.76196289 C283.8004332 522.6808725 283.80618866 521.5997821 283.81211853 520.4859314 C283.82190735 519.50851486 283.83169617 518.53109833 283.84178162 517.52406311 C283.85146044 516.24230997 283.85146044 516.24230997 283.8613348 514.93466282 C284 513 284 513 285 512 C287.59359322 511.91148471 290.16039691 511.88474055 292.75390625 511.90234375 C293.52935287 511.9037587 294.3047995 511.90517365 295.10374451 511.90663147 C297.59003494 511.91224655 300.0762366 511.92480154 302.5625 511.9375 C304.24413933 511.94251306 305.92578006 511.9470763 307.60742188 511.95117188 C311.73831566 511.96222087 315.86914276 511.97949555 320 512 C319.99777939 510.88722183 319.99555878 509.77444366 319.99327087 508.62794495 C319.97304045 498.1650787 319.95802834 487.70221639 319.94818783 477.23933506 C319.94295875 471.85966238 319.93586065 466.48000542 319.92456055 461.1003418 C319.91373255 455.91325157 319.90772335 450.72617651 319.90512276 445.53907585 C319.90326835 443.5554372 319.89964744 441.57179942 319.89426994 439.58816719 C319.88706068 436.81990864 319.88600901 434.05171362 319.88647461 431.28344727 C319.88287933 430.45482681 319.87928406 429.62620636 319.87557983 428.7724762 C319.88594784 423.11405216 319.88594784 423.11405216 321 422 C322.34267413 421.91368126 323.68974322 421.89293527 325.03515625 421.90234375 C326.24848633 421.90717773 326.24848633 421.90717773 327.48632812 421.91210938 C328.33646484 421.92048828 329.18660156 421.92886719 330.0625 421.9375 C330.91650391 421.94201172 331.77050781 421.94652344 332.65039062 421.95117188 C334.76695663 421.96299627 336.88348685 421.98093231 339 422 C338.99777939 421.3257045 338.99555878 420.651409 338.99327087 419.9566803 C338.97122071 412.96567309 338.95609453 405.97467569 338.94506836 398.98364258 C338.94002623 396.37133381 338.93319275 393.75902789 338.92456055 391.14672852 C338.91248964 387.40119732 338.90677065 383.65570328 338.90234375 379.91015625 C338.89718246 378.73413345 338.89202118 377.55811066 338.88670349 376.34645081 C338.88662796 375.26540573 338.88655243 374.18436066 338.88647461 373.07055664 C338.884254 372.11347305 338.88203339 371.15638947 338.87974548 370.17030334 C339 368 339 368 340 367 C351.55 367 363.1 367 375 367 C375 441.25 375 515.5 375 592 C377.64 592 380.28 592 383 592 C382.99943042 591.06962276 382.99943042 591.06962276 382.99884933 590.12045002 C382.97644229 553.31066591 382.95929882 516.50088281 382.94893467 479.69109327 C382.94768405 475.26541633 382.94638972 470.83973941 382.94506836 466.4140625 C382.94480605 465.53303749 382.94454374 464.65201249 382.94427348 463.74428976 C382.93992924 449.50287234 382.93204855 435.26145898 382.9228472 421.02004397 C382.91347599 406.39308645 382.90793706 391.76613105 382.90591151 377.13917065 C382.90454347 368.12291308 382.90023198 359.106667 382.89208353 350.09041297 C382.88677326 343.896862 382.88520539 337.70331692 382.88649862 331.50976384 C382.88713534 327.94330454 382.88620069 324.37686523 382.88079453 320.81040955 C382.84118397 293.38656856 382.84118397 293.38656856 384 280 C386.84896645 280.66786726 388.99056087 281.43482784 391.46875 283.00390625 C392.11585938 283.4105249 392.76296875 283.81714355 393.4296875 284.23608398 C394.11289062 284.67380127 394.79609375 285.11151855 395.5 285.5625 C396.21414063 286.0150415 396.92828125 286.46758301 397.6640625 286.93383789 C409.99781912 294.77920123 422.00726778 303.09985645 434.03369141 311.40429688 C443.00378135 317.5971549 452.01770303 323.71498171 461.1015625 329.73974609 C464.42538755 331.94622563 467.7435796 334.16115306 471.0625 336.375 C472.26169427 337.17451588 473.46091187 337.97399678 474.66015625 338.7734375 C475.21590332 339.1456543 475.77165039 339.51787109 476.34423828 339.90136719 C477.46649729 340.6460097 478.59536103 341.38077564 479.72998047 342.10644531 C483.89544008 344.79088016 483.89544008 344.79088016 485 347 C485.10800209 349.75825774 485.15490796 352.49194171 485.15821838 355.25088501 C485.16315636 356.11422341 485.16809434 356.97756181 485.17318195 357.86706197 C485.18861108 360.77676977 485.19693218 363.68645541 485.20532227 366.59619141 C485.21489654 368.67527971 485.22490635 370.75436605 485.23532104 372.83345032 C485.26242505 378.49222979 485.2834048 384.15101766 485.30332303 389.80982637 C485.32514877 395.71823446 485.35255411 401.62661654 485.37937927 407.53500366 C485.42935241 418.72991011 485.47427406 429.92483096 485.51740164 441.11976564 C485.56673458 453.86202933 485.6216673 466.60426693 485.67708123 479.3465054 C485.7909722 505.56431278 485.89759706 531.78214545 486 558 C492.27 558.33 498.54 558.66 505 559 C504.98839844 557.45828125 504.97679687 555.9165625 504.96484375 554.328125 C504.95546393 552.30208454 504.94636394 550.27604278 504.9375 548.25 C504.92912109 547.23421875 504.92074219 546.2184375 504.91210938 545.171875 C504.90888672 544.1921875 504.90566406 543.2125 504.90234375 542.203125 C504.89710693 541.30239258 504.89187012 540.40166016 504.88647461 539.47363281 C504.99237688 537.16610196 505.34867187 535.20865595 506 533 C506.71027344 532.93941406 507.42054687 532.87882813 508.15234375 532.81640625 C509.07144531 532.73261719 509.99054688 532.64882813 510.9375 532.5625 C511.85402344 532.48128906 512.77054688 532.40007813 513.71484375 532.31640625 C515.96159732 532.23955024 515.96159732 532.23955024 517 531 C517.17010735 527.47688773 517.29719074 523.96045232 517.34179688 520.43359375 C517.57020395 514.28253801 519.30391417 511.56657952 523.7890625 507.296875 C524.39492187 506.78640625 525.00078125 506.2759375 525.625 505.75 C528.81423587 503.0240051 531.952613 500.25391212 535.0625 497.4375 C535.90039062 496.6846875 536.73828125 495.931875 537.6015625 495.15625 C539.10149337 493.80777795 540.59703792 492.45439232 542.0859375 491.09375 C546.66244104 487 546.66244104 487 550 487 C550 516.7 550 546.4 550 577 C553.63 577 557.26 577 561 577 C562 578 562 578 562.12025452 580.13233948 C562.11803391 581.07165817 562.11581329 582.01097687 562.11352539 582.97875977 C562.11341209 584.57029625 562.11341209 584.57029625 562.11329651 586.19398499 C562.10813522 587.348134 562.10297394 588.50228302 562.09765625 589.69140625 C562.0962413 590.86638168 562.09482635 592.04135712 562.09336853 593.25193787 C562.08774992 597.02215064 562.07519426 600.79230504 562.0625 604.5625 C562.0574874 607.11132727 562.05292408 609.66015547 562.04882812 612.20898438 C562.03777444 618.47267633 562.02101821 624.73633399 562 631 C563.7015625 630.9690625 563.7015625 630.9690625 565.4375 630.9375 C569 631 569 631 570 632 C570.15786308 633.85174706 570.25107356 635.7090911 570.31640625 637.56640625 C570.35830078 638.69111328 570.40019531 639.81582031 570.44335938 640.97460938 C570.50233398 642.75061523 570.50233398 642.75061523 570.5625 644.5625 C570.62727539 646.34430664 570.62727539 646.34430664 570.69335938 648.16210938 C570.79983546 651.10794784 570.90184841 654.0538743 571 657 C571.66 657 572.32 657 573 657 C572.99777939 655.89023804 572.99555878 654.78047607 572.99327087 653.63708496 C572.97296998 643.16168333 572.9579944 632.6862857 572.94818783 622.21086884 C572.94297665 616.82579222 572.93591109 611.44073152 572.92456055 606.05566406 C572.9136689 600.85557398 572.90770987 595.65549918 572.90512276 590.45539856 C572.90327981 588.47475443 572.89968104 586.49411111 572.89426994 584.51347351 C572.88697617 581.73227146 572.88601257 578.951132 572.88647461 576.16992188 C572.88287933 575.35711761 572.87928406 574.54431335 572.87557983 573.70687866 C572.89943433 560.3751015 572.89943433 560.3751015 575.66381836 556.92114258 C576.38190674 556.41736084 577.09999512 555.9135791 577.83984375 555.39453125 C578.64711914 554.80986084 579.45439453 554.22519043 580.28613281 553.62280273 C581.16108398 553.02540283 582.03603516 552.42800293 582.9375 551.8125 C583.83178711 551.17320557 584.72607422 550.53391113 585.64746094 549.87524414 C587.50322269 548.5511251 589.36613407 547.23697266 591.23583984 545.93261719 C594.67093945 543.53089943 598.06137722 541.07090038 601.45141602 538.60620117 C604.28667663 536.5478893 607.13546495 534.50879681 609.98632812 532.47216797 C611.40289634 531.43653432 612.80126843 530.37577681 614.18554688 529.29736328 C614.89259766 528.74677246 615.59964844 528.19618164 616.328125 527.62890625 C616.96137695 527.12560791 617.59462891 526.62230957 618.24707031 526.10375977 C620 525 620 525 623 525 C623.33 551.73 623.66 578.46 624 606 C626.31 606.66 628.62 607.32 631 608 C631 626.81 631 645.62 631 665 C632.98 664.67 634.96 664.34 637 664 C637.33 657.4 637.66 650.8 638 644 C643.5359399 643.97709266 649.07171655 643.95716509 654.60766602 643.94506836 C656.4924373 643.94002756 658.37720465 643.93319502 660.26196289 643.92456055 C662.96501636 643.91248383 665.66801831 643.90676932 668.37109375 643.90234375 C669.21900986 643.89718246 670.06692596 643.89202118 670.9405365 643.88670349 C672.96071068 643.88650805 674.98077934 643.93793789 677 644 C679.00503509 646.00503509 678.25588663 650.00025444 678.31640625 652.75390625 C678.3475779 653.91707619 678.3475779 653.91707619 678.37937927 655.10374451 C678.44495802 657.58990308 678.50379799 660.07617045 678.5625 662.5625 C678.60567733 664.24415204 678.64929136 665.92579294 678.69335938 667.60742188 C678.80064779 671.73816871 678.90189132 675.86902536 679 680 C679.969375 680.309375 680.93875 680.61875 681.9375 680.9375 C685 682 685 682 686 683 C686.09851171 684.83115883 686.12972629 686.66619933 686.125 688.5 C686.12757812 689.5003125 686.13015625 690.500625 686.1328125 691.53125 C686 694 686 694 685 695 C682.55391002 695.15980437 680.13268942 695.25929447 677.68359375 695.31640625 C676.95253922 695.33718735 676.22148468 695.35796844 675.46827698 695.37937927 C673.12478344 695.44495024 670.78117461 695.50379432 668.4375 695.5625 C666.85220145 695.60567808 665.26691471 695.64929213 663.68164062 695.69335938 C659.78787963 695.8006392 655.89400228 695.9018849 652 696 C652.76030518 696.33209473 653.52061035 696.66418945 654.30395508 697.00634766 C657.1815143 698.26608545 660.05705693 699.53029829 662.93139648 700.79736328 C664.76464 701.60394284 666.60006664 702.4055547 668.43554688 703.20703125 C675.83204498 706.47197047 682.97692773 709.99272288 690 714 C690 715.32 690 716.64 690 718 C689.05640625 718.30292969 688.1128125 718.60585938 687.140625 718.91796875 C685.8434176 719.34012579 684.5465684 719.76338446 683.25 720.1875 C682.5705835 720.40873535 681.89116699 720.6299707 681.19116211 720.85791016 C675.90793563 722.61300752 670.88951082 724.74367305 665.87890625 727.1796875 C657.66155025 729.52113222 650.79633484 725.31540696 643.625 721.6875 C636.50831194 718.14323913 629.4131333 714.8722334 622 712 C620.40221507 711.34855031 618.80585289 710.69360009 617.2109375 710.03515625 C606.93068598 705.828119 596.67271037 702.09041445 586 699 C584.92592392 698.65389679 583.85184784 698.30779358 582.745224 697.95120239 C578.86317579 696.96524974 575.59423032 696.7588955 571.59594727 696.77294922 C570.892668 696.77265717 570.18938873 696.77236511 569.46479797 696.77206421 C567.16520377 696.77344554 564.86594309 696.78894943 562.56640625 696.8046875 C560.96215492 696.8084219 559.35790129 696.81126686 557.75364685 696.81326294 C553.54999392 696.82086578 549.34648119 696.84048516 545.1428833 696.8626709 C540.84592586 696.88320181 536.54894557 696.8922801 532.25195312 696.90234375 C523.83457138 696.9237345 515.41730318 696.95782957 507 697 C507.78536133 697.25168945 508.57072266 697.50337891 509.37988281 697.76269531 C512.35466877 698.71641012 515.32925277 699.67075171 518.30371094 700.62548828 C520.1997197 701.23386641 522.09595062 701.84155203 523.9921875 702.44921875 C556.61854494 712.92399667 589.31855322 723.80965607 618 743 C617 745 617 745 615.14916992 745.71435547 C614.35099854 745.92979004 613.55282715 746.14522461 612.73046875 746.3671875 C611.40571533 746.73336182 611.40571533 746.73336182 610.05419922 747.10693359 C609.10818848 747.36039551 608.16217773 747.61385742 607.1875 747.875 C600.32044715 749.75475619 593.58517366 751.69910563 586.9609375 754.3359375 C577.89200176 756.36986768 570.85955486 754.67390776 562.5625 750.9375 C550.39942852 745.77221579 538.0104853 741.43112634 525.5 737.1875 C524.56350616 736.86780243 523.62701233 736.54810486 522.66213989 736.21871948 C510.85202231 732.18982617 499.00774935 728.39587085 487 725 C485.96343262 724.70440186 484.92686523 724.40880371 483.85888672 724.10424805 C454.55076335 715.8835556 424.4146184 710.07986921 394.35595703 705.38525391 C390.61762746 704.77394986 386.90421812 704.0420731 383.1875 703.3125 C378.02625488 702.31871988 372.97105933 701.59773783 367.72265625 701.30859375 C365 701 365 701 361.12810612 700.01565552 C355.18291149 698.68742244 349.30024684 698.57650545 343.22764587 698.44091797 C341.88342125 698.40515185 340.53921072 698.36885301 339.19501299 698.33209038 C335.32582417 698.22987853 331.45641771 698.14181524 327.5868102 698.05710125 C324.90396326 697.99788008 322.22119493 697.9357425 319.53842473 697.87314606 C303.81247308 697.5097309 288.08549787 697.21414661 272.35766602 696.9453125 C270.40801559 696.91195352 270.40801559 696.91195352 268.41897829 696.87792063 C195.61923737 695.64260808 122.8177038 695.76875663 50.00987448 695.85306008 C28.86921966 695.87744754 7.72856728 695.88745267 -13.41209918 695.89553714 C-23.82643963 695.89953809 -34.2407798 695.90419401 -44.6551199 695.9090271 C-46.21540383 695.90975014 -46.21540383 695.90975014 -47.80720866 695.91048779 C-72.26983202 695.92197664 -96.7324499 695.93990356 -121.19506836 695.95898438 C-122.25872121 695.95981167 -123.32237405 695.96063896 -124.4182588 695.96149132 C-137.37295696 695.97157318 -150.32765496 695.98184241 -163.2823529 695.99219187 C-184.04817969 696.0087813 -204.81400664 696.02513908 -225.57983398 696.04101562 C-226.66122123 696.0418448 -227.74260848 696.04267398 -228.85676504 696.04352829 C-253.53679185 696.06241784 -278.21681816 696.07950074 -302.89684963 696.0909729 C-303.93207025 696.09145489 -304.96729088 696.09193687 -306.03388182 696.09243347 C-316.36176138 696.09720151 -326.68964103 696.10165812 -337.01752092 696.10564596 C-359.14676304 696.11426131 -381.27598212 696.12837113 -403.40521178 696.15374166 C-419.43944613 696.17204592 -435.47367271 696.18360667 -451.50791705 696.18797636 C-461.02849402 696.1908138 -470.54902765 696.19936618 -480.06959093 696.21586867 C-486.4139251 696.22633073 -492.7582362 696.22965193 -499.10257841 696.22701529 C-502.72239223 696.2257259 -506.34212738 696.22770771 -509.9619273 696.2384088 C-513.84755293 696.2498302 -517.73307366 696.2460118 -521.61871433 696.24050903 C-523.32688528 696.24924762 -523.32688528 696.24924762 -525.06956473 696.25816274 C-526.09610526 696.2541806 -527.1226458 696.25019846 -528.18029362 696.24609566 C-529.06962775 696.2468551 -529.95896187 696.24761454 -530.87524552 696.24839699 C-533 696 -533 696 -535 694 C-535 690.04 -535 686.08 -535 682 C-527.08 681.67 -519.16 681.34 -511 681 C-510.71075131 674.13412283 -510.71075131 674.13412283 -510.43188477 667.26782227 C-510.39377686 666.41760498 -510.35566895 665.5673877 -510.31640625 664.69140625 C-510.27974854 663.81685791 -510.24309082 662.94230957 -510.20532227 662.04125977 C-510 660 -510 660 -509 659 C-506.41810554 658.89908525 -503.863535 658.86028501 -501.28125 658.8671875 C-500.50817505 658.86623077 -499.7351001 658.86527405 -498.93859863 658.86428833 C-497.30102456 658.86360659 -495.66344781 658.86546043 -494.02587891 658.86962891 C-491.51068079 658.87497729 -488.99566127 658.86968374 -486.48046875 658.86328125 C-484.89322877 658.86394203 -483.3059889 658.8652232 -481.71875 658.8671875 C-480.96146606 658.86516327 -480.20418213 658.86313904 -479.4239502 658.86105347 C-474.11495132 658.88504868 -474.11495132 658.88504868 -473 660 C-472.84417697 661.34015221 -472.74955858 662.68758903 -472.68359375 664.03515625 C-472.64169922 664.84404297 -472.59980469 665.65292969 -472.55664062 666.48632812 C-472.51732422 667.33646484 -472.47800781 668.18660156 -472.4375 669.0625 C-472.39431641 669.91650391 -472.35113281 670.77050781 -472.30664062 671.65039062 C-472.20023298 673.76672037 -472.09958269 675.88333813 -472 678 C-467.71 678.33 -463.42 678.66 -459 679 C-458.97494385 677.33912354 -458.9498877 675.67824707 -458.92407227 673.96704102 C-458.83020474 667.83007515 -458.7299344 661.69322797 -458.62768555 655.55639648 C-458.5842582 652.89561735 -458.5425891 650.23480893 -458.50268555 647.57397461 C-458.44517128 643.75886185 -458.38142332 639.94389758 -458.31640625 636.12890625 C-458.29969376 634.93100967 -458.28298126 633.7331131 -458.26576233 632.49891663 C-458.24581711 631.3978508 -458.22587189 630.29678497 -458.20532227 629.16235352 C-458.18977798 628.18750504 -458.1742337 627.21265656 -458.15821838 626.20826721 C-458 624 -458 624 -457 623 C-452.71 623 -448.42 623 -444 623 C-444 590.99 -444 558.98 -444 526 C-439.65007145 526 -438.41541438 526.63914257 -434.765625 528.7890625 C-433.20908203 529.69700562 -433.20908203 529.69700562 -431.62109375 530.62329102 C-430.50863281 531.28385498 -429.39617187 531.94441895 -428.25 532.625 C-427.09032025 533.30541891 -425.93015719 533.98501468 -424.76953125 534.66381836 C-422.37044593 536.06854595 -419.97420422 537.4779508 -417.58007812 538.89111328 C-414.16016104 540.90836436 -410.72993411 542.9075268 -407.296875 544.90234375 C-401.52463718 548.25705114 -395.75433914 551.61465778 -390 555 C-388.59621094 555.82346924 -388.59621094 555.82346924 -387.1640625 556.66357422 C-386.26429688 557.19611816 -385.36453125 557.72866211 -384.4375 558.27734375 C-383.63183594 558.75292725 -382.82617188 559.22851074 -381.99609375 559.71850586 C-380 561 -380 561 -378 563 C-377.73828697 565.01085854 -377.73828697 565.01085854 -377.7215271 567.53042603 C-377.71036362 568.48397476 -377.69920013 569.4375235 -377.68769836 570.41996765 C-377.68553818 571.46941055 -377.68337799 572.51885345 -377.68115234 573.60009766 C-377.66608391 575.25376595 -377.66608391 575.25376595 -377.65071106 576.94084167 C-377.6197269 580.59857646 -377.6028016 584.25623756 -377.5859375 587.9140625 C-377.56723811 590.4446985 -377.54766564 592.97532818 -377.5272522 595.50595093 C-377.48105954 601.49469972 -377.4436981 607.48344114 -377.41057932 613.47227132 C-377.37238839 620.28965931 -377.32297037 627.10695132 -377.27259517 633.92425847 C-377.16921105 647.9494345 -377.07997181 661.97467234 -377 676 C-375.68 676 -374.36 676 -373 676 C-372.98969254 674.96239029 -372.97938507 673.92478058 -372.96876526 672.85572815 C-372.87120396 663.09917527 -372.76848673 653.34268863 -372.66066074 643.58624363 C-372.60538761 638.56980702 -372.55196074 633.55336463 -372.50268555 628.53686523 C-372.45510657 623.69985134 -372.40276637 618.86291069 -372.34705925 614.02598381 C-372.32660629 612.1763382 -372.30789819 610.32667248 -372.29092598 608.47699165 C-372.2669468 605.89547546 -372.23688382 603.31409903 -372.20532227 600.73266602 C-372.1995668 599.96014999 -372.19381134 599.18763397 -372.18788147 598.39170837 C-372.11405216 593.11405216 -372.11405216 593.11405216 -371 592 C-365.06 592 -359.12 592 -353 592 C-353 540.85 -353 489.7 -353 437 C-347.78526111 437.86912315 -345.77784801 438.41355001 -341.52734375 441 C-340.47708008 441.63156006 -339.42681641 442.26312012 -338.34472656 442.91381836 C-337.2203418 443.6022583 -336.09595703 444.29069824 -334.9375 445 C-333.74903725 445.71797993 -332.55989577 446.43483744 -331.37011719 447.15063477 C-329.50390519 448.2734793 -327.63811244 449.3969576 -325.77432251 450.52381897 C-319.42504221 454.36081925 -313.02426751 458.10774568 -306.61715698 461.84710693 C-301.40668826 464.88994641 -296.20427957 467.94659375 -291 471 C-290.11602539 471.51804199 -289.23205078 472.03608398 -288.32128906 472.56982422 C-286.16951172 473.83320849 -284.02137189 475.10246147 -281.875 476.375 C-280.23144531 477.34566406 -280.23144531 477.34566406 -278.5546875 478.3359375 C-274.45914442 481.00367657 -274.45914442 481.00367657 -273 483 C-272.71181533 485.58032624 -272.60804222 487.9179086 -272.63923645 490.49797058 C-272.63667318 491.2682417 -272.6341099 492.03851282 -272.63146895 492.83212548 C-272.62651544 495.42109077 -272.64304947 498.00947684 -272.65942383 500.59838867 C-272.66026976 502.45102423 -272.65979562 504.3036608 -272.65809631 506.15629578 C-272.65723362 511.1932352 -272.67490364 516.22996142 -272.69581819 521.26685119 C-272.71453943 526.52793158 -272.71633183 531.78901656 -272.71989441 537.05012512 C-272.72922828 547.01612568 -272.75386021 556.98202782 -272.78394288 566.94798499 C-272.81744516 578.29244397 -272.83396239 589.63690759 -272.84902918 600.98140371 C-272.88040859 624.32099228 -272.93379763 647.66048648 -273 671 C-267.72 671 -262.44 671 -257 671 C-257 618.2 -257 565.4 -257 511 C-233.735 510.505 -233.735 510.505 -210 510 C-209.97494385 506.70330322 -209.9498877 503.40660645 -209.92407227 500.01000977 C-209.84077877 489.14540383 -209.75207003 478.28084704 -209.66066074 467.4163065 C-209.60538055 460.82597632 -209.55195255 454.23564176 -209.50268555 447.64526367 C-209.45511699 441.29104033 -209.40277719 434.93687292 -209.34705925 428.58271599 C-209.32660156 426.15251995 -209.30789427 423.72230855 -209.29092598 421.29208565 C-209.2669573 417.90112857 -209.2368928 414.51027834 -209.20532227 411.11938477 C-209.1995668 410.10374954 -209.19381134 409.08811432 -209.18788147 408.04170227 C-209.17809265 407.12318481 -209.16830383 406.20466736 -209.15821838 405.25831604 C-209.14853956 404.05399351 -209.14853956 404.05399351 -209.1386652 402.82534122 C-209 401 -209 401 -208 400 C-204.99186514 399.89937253 -202.00664971 399.8638526 -198.99804688 399.87060547 C-198.0534108 399.86885315 -197.10877472 399.86710083 -196.13551331 399.86529541 C-192.9965738 399.8608752 -189.85769013 399.86381548 -186.71875 399.8671875 C-184.54781076 399.86651451 -182.3768716 399.86554453 -180.20593262 399.86428833 C-175.64948817 399.86281113 -171.09306328 399.86496663 -166.53662109 399.86962891 C-160.68173414 399.8753262 -154.82689302 399.87204732 -148.97200775 399.86605644 C-144.48719942 399.86245143 -140.00240204 399.86358914 -135.51759338 399.86618423 C-133.35811864 399.86685367 -131.19864291 399.8660245 -129.03916931 399.86370468 C-126.02673692 399.86117914 -123.01437987 399.86501736 -120.00195312 399.87060547 C-119.10009781 399.86858124 -118.19824249 399.86655701 -117.26905823 399.86447144 C-111.11426231 399.88573769 -111.11426231 399.88573769 -110 401 C-109.88954465 404.04634127 -109.84502394 407.07049515 -109.84178162 410.11769104 C-109.83684364 411.08634737 -109.83190566 412.05500371 -109.82681805 413.05301327 C-109.81136088 416.32513527 -109.80306031 419.59723753 -109.79467773 422.86938477 C-109.78510566 425.20447974 -109.77509599 427.53957295 -109.76467896 429.87466431 C-109.73755113 436.23596128 -109.71658436 442.59726572 -109.69667697 448.95858884 C-109.6770732 454.92640443 -109.65290962 460.89420003 -109.62875474 466.86199867 C-109.58104782 478.68557409 -109.53779207 490.50916146 -109.49731445 502.33276367 C-109.45797528 513.82105439 -109.41655286 525.30933448 -109.37231445 536.79760742 C-109.36959018 537.50526265 -109.36686591 538.21291788 -109.36405908 538.94201721 C-109.35037987 542.49197159 -109.33665954 546.04192582 -109.32291877 549.59187996 C-109.20890531 579.06123082 -109.10218057 608.53060575 -109 638 C-106.03 638 -103.06 638 -100 638 C-99.99864347 637.13532785 -99.99728694 636.2706557 -99.99588931 635.37978137 C-99.91531735 584.18302488 -99.82439504 532.98629575 -99.71994839 481.78958211 C-99.70742885 475.64845854 -99.69499618 469.50733479 -99.68261719 463.36621094 C-99.68015119 462.14357412 -99.6776852 460.9209373 -99.67514448 459.66125087 C-99.63537238 439.83947264 -99.60264478 420.01768867 -99.57250018 400.19589372 C-99.54143515 379.87146374 -99.50284714 359.54705819 -99.45720994 339.22265565 C-99.42926664 326.6717046 -99.40725905 314.1207715 -99.39273749 301.56979762 C-99.38223158 292.9743642 -99.36444795 284.37896548 -99.34083296 275.78355815 C-99.32740712 270.81734702 -99.31729371 265.85118471 -99.31578636 260.88495445 C-99.31433796 256.34509433 -99.30382339 251.80535201 -99.28586559 247.26552801 C-99.28098584 245.61678857 -99.27953384 243.96803497 -99.28172119 242.31928976 C-99.28419413 240.09058467 -99.27456695 237.86226159 -99.26171303 235.63360023 C-99.25943471 234.39191476 -99.25715638 233.15022928 -99.25480902 231.87091696 C-99 229 -99 229 -97 227 C-82.15 226.505 -82.15 226.505 -67 226 C-66.67 198.94 -66.34 171.88 -66 144 C-49.83 144 -33.66 144 -17 144 C-16.98969254 149.14108337 -16.97938507 154.28216675 -16.96876526 159.57904053 C-16.8732859 206.99764232 -16.77340727 254.41623328 -16.66888306 301.83481602 C-16.6551176 308.08144629 -16.64138988 314.32807663 -16.62768555 320.57470703 C-16.62359309 322.43967232 -16.62359309 322.43967232 -16.61941796 324.34231368 C-16.57564269 344.33184086 -16.53490809 364.32137309 -16.49534739 384.310909 C-16.45452154 404.90455231 -16.41031186 425.49818647 -16.36312145 446.09181619 C-16.33678795 457.62411181 -16.3119098 469.15640637 -16.29092598 480.68871307 C-16.2078548 525.95954065 -16.07917249 571.21559048 -15.14543229 616.47800994 C-14.96626107 625.65251239 -14.95269834 634.82414566 -15 644 C-10.71 644 -6.42 644 -2 644 C-2.00056958 642.14152384 -2.00056958 642.14152384 -2.00115067 640.24550271 C-2.0178424 585.56566706 -2.03326693 530.88583116 -2.04234314 476.20599365 C-2.0424812 475.37639908 -2.04261925 474.54680451 -2.04276149 473.69207071 C-2.04575535 455.65686312 -2.04852539 437.62165551 -2.05106533 419.58644785 C-2.05231252 410.74024908 -2.05360909 401.89405032 -2.05493164 393.04785156 C-2.05512778 391.72749224 -2.05512778 391.72749224 -2.05532788 390.38045899 C-2.05957891 361.91901882 -2.06708245 333.45758065 -2.07629722 304.99614169 C-2.08575997 275.71515066 -2.0918924 246.43416074 -2.09391499 217.15316821 C-2.09420309 213.00455507 -2.09452872 208.85594193 -2.09487724 204.7073288 C-2.09494467 203.89093094 -2.09501209 203.07453308 -2.09508156 202.2333959 C-2.09625704 189.1633309 -2.10087811 176.09326935 -2.10683203 163.02320575 C-2.11276236 149.83998087 -2.11495732 136.65675935 -2.11350138 123.47353318 C-2.11281409 116.34823209 -2.11368177 109.22294021 -2.11920547 102.09764099 C-2.15599814 52.60786614 -2.15599814 52.60786614 -1.55540466 31.3480835 C-1.53595919 30.65215624 -1.51651371 29.95622898 -1.49647898 29.23921302 C-1.21208393 19.47739842 -0.65562499 9.74242113 0 0 Z " fill="#CFAA5B" transform="translate(537,2)"/>
<path d="M0 0 C7.43013414 -0.09980626 14.75140013 0.17185166 22.15625 0.76953125 C23.72113159 0.89040352 23.72113159 0.89040352 25.31762695 1.01371765 C27.55100118 1.18656331 29.78423458 1.36123693 32.01733398 1.53759766 C37.99004805 2.00905059 43.96383065 2.46661923 49.9375 2.92578125 C51.14015503 3.01856354 52.34281006 3.11134583 53.58190918 3.2069397 C64.21777885 4.02454799 74.85759992 4.77326746 85.5 5.5 C101.76624154 6.61601111 118.02485254 7.81792198 134.28207397 9.05810547 C149.49327938 10.2179696 164.70637574 11.34736353 179.921875 12.44921875 C181.68094464 12.57668928 183.44001345 12.70417144 185.19908142 12.83166504 C186.07703904 12.89529613 186.95499666 12.95892723 187.85955906 13.02448654 C216.63483444 15.11019547 245.40387262 17.20695747 274.1496582 19.671875 C286.42659222 20.72192213 298.70776054 21.64851646 311 22.5 C331.21901098 23.90124626 351.4110291 25.58158595 371.60585022 27.29299927 C379.39486551 27.95207449 387.18574156 28.58509378 394.97772217 29.20794678 C476.73317125 35.75900993 558.54149786 42.4734319 639.61669922 55.16357422 C644.97130291 55.99975002 650.33076358 56.80126486 655.69140625 57.59765625 C672.51733968 60.10703621 689.23288472 62.82646447 705.88134766 66.35253906 C709.30499941 67.06332069 712.73502846 67.73399744 716.16796875 68.3984375 C731.3708531 71.35047302 746.42535606 74.69265537 761.4609375 78.40234375 C766.91594785 79.74684429 772.38392426 81.00012641 777.875 82.1875 C789.80507404 84.78748769 801.52092025 88.104036 813.21875 91.5859375 C816.73432967 92.63074625 820.25608226 93.65208029 823.78125 94.6640625 C833.86417845 97.56470826 843.88880543 100.54446525 853.81811523 103.93676758 C858.34808096 105.47725747 862.88774796 106.85043143 867.5 108.125 C872.1976706 109.434979 876.64461092 110.96412223 881.13671875 112.8515625 C887.66632938 115.4705332 894.35679314 117.68797905 901 120 C901 120.66 901 121.32 901 122 C900.05870239 122.27094482 900.05870239 122.27094482 899.09838867 122.54736328 C888.40546566 125.63086763 877.72105217 128.7212089 867.125 132.125 C861.17850108 134.0341457 855.2156899 135.80476813 849.1875 137.4375 C842.54136993 139.23820798 835.98708564 141.25065207 829.4375 143.375 C820.09632792 146.40479466 810.68575525 149.11156769 801.21069336 151.69091797 C800.21175049 151.96436035 799.21280762 152.23780273 798.18359375 152.51953125 C797.30243896 152.75776611 796.42128418 152.99600098 795.51342773 153.24145508 C792.94556883 153.97397351 792.94556883 153.97397351 790.33056641 155.08520508 C781.08446485 158.71448881 769.00918502 152.6991568 760.5 149.125 C753.04039162 146.06680042 745.21854732 144.01239011 737.49365234 141.73925781 C733.88215567 140.66860851 730.28284156 139.56107209 726.6875 138.4375 C726.03434814 138.23374756 725.38119629 138.02999512 724.70825195 137.82006836 C720.46905321 136.48765779 716.26502653 135.06814949 712.0625 133.625 C701.1735133 129.97258126 690.07240861 127.03836748 679 124 C675.25522559 122.97090547 671.51057086 121.94137959 667.76611328 120.91113281 C665.25691442 120.22080221 662.74747431 119.53134792 660.23779297 118.84277344 C653.96640239 117.11673347 647.72100151 115.33603981 641.5 113.4375 C630.21308034 110.01920908 618.67600248 107.48793013 607.20703125 104.76513672 C603.44407306 103.8673664 599.6896049 102.94206944 595.9375 102 C594.73480469 101.69835937 593.53210938 101.39671875 592.29296875 101.0859375 C589.88505405 100.47878083 587.47853025 99.86656637 585.07275391 99.25097656 C568.81677038 95.0929769 552.52920096 91.30189207 536.10595703 87.8671875 C531.51263405 86.90144285 526.92635319 85.90376581 522.33984375 84.90625 C497.9537293 79.60997376 473.52164223 74.62871005 449 70 C448.06690002 69.82382141 447.13380005 69.64764282 446.17242432 69.46612549 C415.17432408 63.62328036 384.10943179 58.21095593 352.99853516 53.00488281 C348.35309849 52.22747753 343.70860449 51.44467701 339.06465149 50.65846252 C321.96736405 47.76434098 304.85839193 45.02712321 287.69628906 42.54052734 C281.32135559 41.60828806 274.95144406 40.64275057 268.58071899 39.68225098 C261.41701149 38.60363089 254.25196837 37.53389302 247.08721924 36.46221924 C243.86254089 35.97941959 240.63805007 35.49538053 237.41357422 35.01123047 C199.07794649 29.2599525 160.699818 23.88881779 122.28852844 18.67126465 C110.64825153 17.08998697 99.00977409 15.49631746 87.375 13.875 C86.5699704 13.76295227 85.7649408 13.65090454 84.93551636 13.53546143 C74.12948536 12.02879569 63.33122195 10.47095407 52.53515625 8.89453125 C50.65884521 8.62068604 50.65884521 8.62068604 48.74462891 8.34130859 C42.57638662 7.44038294 36.40865596 6.53614902 30.24169922 5.62646484 C27.99316831 5.29652056 25.74463334 4.96660388 23.49609375 4.63671875 C22.4813649 4.4859639 21.46663605 4.33520905 20.42115784 4.17988586 C14.943411 3.37833211 9.50326768 2.73467635 3.97865295 2.35652161 C2 2 2 2 0 0 Z " fill="#CFAA5C" transform="translate(18,699)"/>
<path d="M0 0 C82.82989777 -0.13055091 165.57230259 0.03641827 248.375 2.4375 C249.98080429 2.48392324 249.98080429 2.48392324 251.61904907 2.53128433 C275.64852832 3.2281291 299.67218212 4.02340536 323.69140625 5.015625 C324.65992397 5.05521772 325.6284417 5.09481045 326.62630844 5.13560295 C344.44740221 5.86934729 362.26247597 6.78666623 380.05078125 8.10546875 C381.00302078 8.1754155 381.95526031 8.24536224 382.93635559 8.31742859 C385.95783643 8.54156505 388.97896016 8.76999978 392 9 C393.03090759 9.07800842 394.06181519 9.15601685 395.1239624 9.23638916 C461.39810742 14.29543562 527.33123006 23.47138628 592 39 C592.94037109 39.22107422 593.88074219 39.44214844 594.84960938 39.66992188 C607.36206037 42.61241035 619.64045135 46.1912168 631.90527344 50.03173828 C634.17799855 50.74281652 636.45232371 51.44878591 638.72753906 52.15185547 C647.95003888 55.00543309 657.1193649 57.98788442 666.25 61.125 C667.26882263 61.47482941 667.26882263 61.47482941 668.30822754 61.83172607 C689.63862541 69.17979864 710.55063608 77.45853411 731 87 C729.54174267 89.91651466 727.28874491 90.37922327 724.32324219 91.3828125 C714.12404326 94.09230965 705.21429322 89.94898573 695.77832031 86.35940552 C691.41095713 84.69998653 687.02356498 83.09533536 682.63671875 81.48828125 C681.78483978 81.17509445 680.93296082 80.86190765 680.05526733 80.53923035 C671.61998432 77.45684383 663.08726988 74.97222653 654.41210938 72.66845703 C650.79776011 71.66682866 647.22752646 70.53204834 643.64941406 69.40893555 C632.44654871 65.89695612 621.1721318 63.00031256 609.734375 60.359375 C606.02389478 59.49889712 602.35135078 58.56212822 598.68359375 57.53515625 C591.94911583 55.67120255 585.13907622 54.17115648 578.3125 52.6875 C577.62026337 52.53659912 576.92802673 52.38569824 576.21481323 52.23022461 C561.95669694 49.13143608 547.64760373 46.34662414 533.28564453 43.77246094 C530.39925257 43.25457496 527.5151309 42.72595578 524.63232422 42.18847656 C452.20067707 28.71240716 378.08985819 22.45892522 304.64941406 17.45605469 C298.87319059 17.06216766 293.09822358 16.65212173 287.32342529 16.23791504 C224.05535567 11.69991819 160.73458986 8.78411567 97.37458801 5.88774109 C79.78945941 5.08365439 62.20479839 4.27031071 44.62106323 3.4362793 C42.04095254 3.31409461 39.46081418 3.1924925 36.88064575 3.0715332 C24.578286 2.4946849 12.28340829 1.90287654 0 1 C0 0.67 0 0.34 0 0 Z " fill="#CFAB5E" transform="translate(277,704)"/>
<path d="M0 0 C0.90185532 0.00202423 1.80371063 0.00404846 2.7328949 0.00613403 C3.67753098 0.00438171 4.62216705 0.00262939 5.59542847 0.00082397 C8.73436797 -0.00359624 11.87325164 -0.00065595 15.01219177 0.00271606 C17.18313101 0.00204307 19.35407018 0.00107309 21.52500916 -0.00018311 C26.08145361 -0.00166031 30.6378785 0.0004952 35.19432068 0.00515747 C41.04920763 0.01085477 46.90404875 0.00757588 52.75893402 0.00158501 C57.24374235 -0.00202 61.72853973 -0.0008823 66.21334839 0.0017128 C68.37282313 0.00238224 70.53229886 0.00155307 72.69177246 -0.00076675 C75.70420485 -0.00329229 78.7165619 0.00054592 81.72898865 0.00613403 C82.63084396 0.0041098 83.53269928 0.00208557 84.46188354 0 C90.61667946 0.02126625 90.61667946 0.02126625 91.73094177 1.13552856 C91.82895497 4.15692919 91.86085338 7.15548283 91.85119629 10.17729187 C91.85247793 11.61802571 91.85247793 11.61802571 91.85378546 13.08786529 C91.85544318 16.33236855 91.84991412 19.57682102 91.84446716 22.82131958 C91.84418533 25.13670857 91.84434295 27.45209764 91.84490967 29.76748657 C91.84519779 36.0750852 91.83929874 42.38266499 91.83233571 48.69025922 C91.82610456 55.27397902 91.82549856 61.85769921 91.8243103 68.44142151 C91.82171719 79.49888436 91.81529499 90.55634058 91.80638123 101.61380005 C91.79720789 113.00507574 91.79012667 124.39634954 91.78587341 135.78762817 C91.78561069 136.48930941 91.78534797 137.19099065 91.78507728 137.91393495 C91.78377228 141.43392105 91.78250856 144.95390716 91.78126538 148.47389328 C91.77089183 177.6944429 91.75319857 206.91498564 91.73094177 236.13552856 C91.07094177 236.13552856 90.41094177 236.13552856 89.73094177 236.13552856 C89.73094177 158.91552856 89.73094177 81.69552856 89.73094177 2.13552856 C58.38094177 2.13552856 27.03094177 2.13552856 -5.26905823 2.13552856 C-5.2458551 9.90857544 -5.22265198 17.68162231 -5.19874573 25.69021606 C-5.18853145 30.6029798 -5.17890385 35.51573052 -5.17140198 40.42849731 C-5.15942802 48.23304957 -5.14523517 56.03755509 -5.11817932 63.84207153 C-5.09651154 70.13142536 -5.08450244 76.42072908 -5.07930374 82.71011734 C-5.07559705 85.11438918 -5.06835926 87.51865816 -5.05759811 89.92290878 C-5.04316382 93.28013878 -5.0410769 96.63715946 -5.04200745 99.99441528 C-5.03481689 100.99710449 -5.02762634 101.9997937 -5.0202179 103.03286743 C-5.02296722 103.9443454 -5.02571655 104.85582336 -5.02854919 105.79492188 C-5.02670561 106.58950743 -5.02486202 107.38409298 -5.02296257 108.20275688 C-5.26905823 110.13552856 -5.26905823 110.13552856 -7.26905823 112.13552856 C-9.25590515 112.3760376 -9.25590515 112.3760376 -11.71876526 112.36257935 C-12.63956879 112.36242828 -13.56037231 112.36227722 -14.50907898 112.36212158 C-15.50495026 112.35179901 -16.50082153 112.34147644 -17.52687073 112.33084106 C-18.5450589 112.32801117 -19.56324707 112.32518127 -20.61228943 112.32226562 C-23.87299723 112.31104627 -27.13343307 112.28593852 -30.39405823 112.26052856 C-32.60108552 112.25050103 -34.8081171 112.24137479 -37.01515198 112.23318481 C-42.43321395 112.21110124 -47.85111666 112.17760651 -53.26905823 112.13552856 C-53.25858459 112.9074353 -53.24811096 113.67934204 -53.23731995 114.47463989 C-53.19579369 117.96573644 -53.16974265 121.45678106 -53.14405823 124.94802856 C-53.12730042 126.16296997 -53.1105426 127.37791138 -53.09327698 128.62966919 C-53.08683167 129.7930481 -53.08038635 130.956427 -53.07374573 132.15505981 C-53.06327209 133.22860718 -53.05279846 134.30215454 -53.04200745 135.40823364 C-53.26905823 138.13552856 -53.26905823 138.13552856 -55.26905823 141.13552856 C-55.26905823 131.23552856 -55.26905823 121.33552856 -55.26905823 111.13552856 C-39.75905823 110.80552856 -24.24905823 110.47552856 -8.26905823 110.13552856 C-8.24400208 106.83883179 -8.21894592 103.54213501 -8.19313049 100.14553833 C-8.10983699 89.28093239 -8.02112826 78.4163756 -7.92971897 67.55183506 C-7.87443878 60.96150489 -7.82101078 54.37117032 -7.77174377 47.78079224 C-7.72417522 41.42656889 -7.67183542 35.07240148 -7.61611748 28.71824455 C-7.59565978 26.28804851 -7.5769525 23.85783712 -7.55998421 21.42761421 C-7.53601553 18.03665714 -7.50595103 14.64580691 -7.47438049 11.25491333 C-7.46862503 10.23927811 -7.46286957 9.22364288 -7.4569397 8.17723083 C-7.44715088 7.25871338 -7.43736206 6.34019592 -7.42727661 5.3938446 C-7.42082406 4.59096292 -7.41437151 3.78808123 -7.40772343 2.96086979 C-7.08427689 -1.29686975 -3.45314709 0.01193143 0 0 Z " fill="#D6B368" transform="translate(335.26905822753906,401.8644714355469)"/>
<path d="M0 0 C1.20446777 0.01047363 2.40893555 0.02094727 3.64990234 0.03173828 C5.60283203 0.04140625 5.60283203 0.04140625 7.59521484 0.05126953 C8.9754258 0.06798149 10.35563413 0.08491139 11.73583984 0.10205078 C13.12385436 0.11208072 14.51187574 0.12120655 15.89990234 0.12939453 C19.3037201 0.15303215 22.70719491 0.18598211 26.11083984 0.22705078 C23.43235438 2.90553624 21.97113123 2.53209084 18.22802734 2.64111328 C17.06142578 2.67978516 15.89482422 2.71845703 14.69287109 2.75830078 C12.85789062 2.80470703 12.85789062 2.80470703 10.98583984 2.85205078 C9.75478516 2.89072266 8.52373047 2.92939453 7.25537109 2.96923828 C4.20734609 3.06375068 1.15933122 3.14930572 -1.88916016 3.22705078 C-1.89051669 4.08960696 -1.89187321 4.95216314 -1.89327085 5.84085739 C-1.97384285 56.91235718 -2.06476518 107.98382956 -2.16921177 159.0552864 C-2.18173131 165.1813887 -2.19416398 171.30749117 -2.20654297 177.43359375 C-2.20900896 178.65323996 -2.21147496 179.87288616 -2.21401568 181.12949134 C-2.25378775 200.90277061 -2.28651536 220.67605563 -2.31665997 240.44935165 C-2.34772504 260.72406113 -2.38631305 280.99874612 -2.43195021 301.27342808 C-2.45989348 313.79366967 -2.48190109 326.31389325 -2.49642266 338.83415772 C-2.5069286 347.4085664 -2.52471225 355.98294031 -2.54832719 364.55732284 C-2.561753 369.5113824 -2.57186645 374.46539301 -2.57337379 379.41947174 C-2.5748222 383.94822945 -2.58533684 388.47686907 -2.60329457 393.00559057 C-2.60817429 394.65029234 -2.60962633 396.2950083 -2.60743897 397.93971585 C-2.604966 400.16297546 -2.6145933 402.38585215 -2.62744713 404.60906792 C-2.63086461 406.46703949 -2.63086461 406.46703949 -2.63435113 408.36254585 C-2.88916016 411.22705078 -2.88916016 411.22705078 -4.88916016 413.22705078 C-7.27197266 413.42236328 -7.27197266 413.42236328 -10.01416016 413.35205078 C-10.92423828 413.33400391 -11.83431641 413.31595703 -12.77197266 413.29736328 C-13.81998047 413.26255859 -13.81998047 413.26255859 -14.88916016 413.22705078 C-14.88916016 412.89705078 -14.88916016 412.56705078 -14.88916016 412.22705078 C-11.91916016 411.89705078 -8.94916016 411.56705078 -5.88916016 411.22705078 C-5.88712536 409.93004256 -5.88712536 409.93004256 -5.88504946 408.60683215 C-5.8044775 357.41007566 -5.71355519 306.21334653 -5.60910854 255.01663289 C-5.596589 248.87550932 -5.58415633 242.73438558 -5.57177734 236.59326172 C-5.56931135 235.3706249 -5.56684536 234.14798808 -5.56430463 232.88830166 C-5.52453254 213.06652342 -5.49180494 193.24473945 -5.46166034 173.4229445 C-5.43059531 153.09851452 -5.3920073 132.77410897 -5.3463701 112.44970644 C-5.3184268 99.89875538 -5.29641921 87.34782228 -5.28189765 74.7968484 C-5.27139173 66.20141498 -5.2536081 57.60601626 -5.22999312 49.01060893 C-5.21656728 44.0443978 -5.20645386 39.0782355 -5.20494652 34.11200523 C-5.20349812 29.57214511 -5.19298355 25.03240279 -5.17502575 20.49257879 C-5.170146 18.84383935 -5.16869399 17.19508575 -5.17088135 15.54634054 C-5.17335429 13.31763545 -5.1637271 11.08931237 -5.15087318 8.86065102 C-5.1474557 6.9981228 -5.1474557 6.9981228 -5.14396918 5.09796774 C-4.79106193 1.12178437 -3.98093036 0.31284986 0 0 Z " fill="#D9B975" transform="translate(442.88916015625,228.77294921875)"/>
<path d="M0 0 C3.14581423 -0.02888514 6.29159469 -0.04675923 9.4375 -0.0625 C10.33533203 -0.07087891 11.23316406 -0.07925781 12.15820312 -0.08789062 C13.01220703 -0.09111328 13.86621094 -0.09433594 14.74609375 -0.09765625 C15.93223267 -0.10551147 15.93223267 -0.10551147 17.14233398 -0.11352539 C19 0 19 0 20 1 C20.10211091 2.62102109 20.13398828 4.24650125 20.1386652 5.87072849 C20.14413964 6.9316718 20.14961409 7.9926151 20.15525442 9.0857082 C20.15623253 10.26564364 20.15721064 11.44557908 20.15821838 12.66127014 C20.16562535 14.52465166 20.16562535 14.52465166 20.17318195 16.42567724 C20.18593987 19.88950514 20.19419654 23.3532924 20.20060861 26.8171345 C20.20858955 30.54654327 20.2222952 34.27593137 20.23532104 38.00532532 C20.25711665 44.47197385 20.2752498 50.93862445 20.29092598 57.4052906 C20.31359661 66.755112 20.34174327 76.10491052 20.37124526 85.45471256 C20.41895568 100.62254895 20.46221048 115.79039466 20.50268555 130.95825195 C20.54202295 145.69621507 20.58344493 160.43416989 20.62768555 175.17211914 C20.63040982 176.07990307 20.63313409 176.987687 20.63594092 177.92297954 C20.64962011 182.47686667 20.66334044 187.03075368 20.67708123 191.58464062 C20.79110018 229.38974319 20.89789751 267.19486346 21 305 C19 304 19 304 18 301 C17.9090061 299.32238611 17.87624891 297.64134239 17.87695217 295.9612627 C17.8739656 294.39000007 17.8739656 294.39000007 17.87091869 292.78699476 C17.87383153 291.63233974 17.87674437 290.47768472 17.87974548 289.28804016 C17.87889106 288.06449473 17.87803663 286.8409493 17.87715632 285.58032674 C17.875791 282.17801287 17.87892767 278.77575617 17.88393438 275.37344921 C17.8882439 271.70680101 17.8867921 268.04015465 17.8860321 264.37350464 C17.88550719 258.01874178 17.88865062 251.66398918 17.89426994 245.3092289 C17.90238931 236.12125843 17.90500061 226.93329293 17.90625793 217.74531927 C17.90844776 202.83924324 17.91510599 187.93317267 17.92456055 173.02709961 C17.93373644 158.54532905 17.94081641 144.06355998 17.94506836 129.58178711 C17.94546244 128.24330185 17.94546244 128.24330185 17.94586449 126.87777648 C17.94716951 122.40135109 17.94843322 117.92492569 17.94967639 113.44850028 C17.96004686 76.29899629 17.97773753 39.14949866 18 2 C12.06 1.67 6.12 1.34 0 1 C0 0.67 0 0.34 0 0 Z " fill="#D8B160" transform="translate(794,328)"/>
<path d="M0 0 C3.14581423 -0.02888514 6.29159469 -0.04675923 9.4375 -0.0625 C10.33533203 -0.07087891 11.23316406 -0.07925781 12.15820312 -0.08789062 C13.01220703 -0.09111328 13.86621094 -0.09433594 14.74609375 -0.09765625 C15.93223267 -0.10551147 15.93223267 -0.10551147 17.14233398 -0.11352539 C19 0 19 0 20 1 C20.09666765 2.44914375 20.12371805 3.90299105 20.12304783 5.35535526 C20.12503888 6.30134651 20.12702993 7.24733776 20.12908131 8.22199541 C20.12471205 9.79929663 20.12471205 9.79929663 20.12025452 11.40846252 C20.12110894 12.51595964 20.12196337 13.62345675 20.12284368 14.76451439 C20.12450173 18.50651846 20.11897182 22.24847852 20.11352539 25.99047852 C20.11324356 28.66054384 20.11335705 31.3306064 20.1139679 34.00067139 C20.11449332 39.76506068 20.11134457 45.52943869 20.10573006 51.29382515 C20.09761759 59.62825316 20.0950001 67.96267568 20.09374207 76.29710721 C20.09155115 89.81778486 20.08488998 103.33845648 20.07543945 116.85913086 C20.06626636 129.99650034 20.05918503 143.1338682 20.05493164 156.27124023 C20.05453756 157.48505985 20.05453756 157.48505985 20.05413551 158.72340108 C20.05283051 162.78281374 20.05156679 166.84222642 20.05032361 170.9016391 C20.03994975 204.6010971 20.02233036 238.30054781 20 272 C19.67 272 19.34 272 19 272 C18.67 182.9 18.34 93.8 18 2 C12.06 1.67 6.12 1.34 0 1 C0 0.67 0 0.34 0 0 Z " fill="#D8BA7A" transform="translate(794,328)"/>
<path d="M0 0 C0 29.37 0 58.74 0 89 C-0.66 89 -1.32 89 -2 89 C-2.33 60.62 -2.66 32.24 -3 3 C-4.65 4.32 -6.3 5.64 -8 7 C-8.66 6.67 -9.32 6.34 -10 6 C-8.90398831 4.99106869 -7.79786082 3.99311775 -6.6875 3 C-6.07261719 2.443125 -5.45773437 1.88625 -4.82421875 1.3125 C-3 0 -3 0 0 0 Z " fill="#DBBA74" transform="translate(1087,489)"/>
<path d="M0 0 C9.24 0 18.48 0 28 0 C27.67 0.66 27.34 1.32 27 2 C18.75 2 10.5 2 2 2 C2 14.54 2 27.08 2 40 C1.01 40.495 1.01 40.495 0 41 C0 27.47 0 13.94 0 0 Z " fill="#D4B065" transform="translate(695,335)"/>
<path d="M0 0 C1.20970459 0.00523682 2.41940918 0.01047363 3.66577148 0.01586914 C4.97094727 0.0190918 6.27612305 0.02231445 7.62084961 0.02563477 C9.00952213 0.03399138 10.39819401 0.04245634 11.78686523 0.05102539 C13.17944179 0.05603873 14.57202005 0.06060193 15.96459961 0.06469727 C19.38456394 0.07653105 22.80444367 0.09301659 26.22436523 0.11352539 C19.58692932 6.75096131 7.60418196 2.75276321 -1.77563477 3.11352539 C-2.10563477 21.92352539 -2.43563477 40.73352539 -2.77563477 60.11352539 C-3.10563477 60.11352539 -3.43563477 60.11352539 -3.77563477 60.11352539 C-3.79876297 52.43815912 -3.8165523 44.76279644 -3.82744694 37.0874033 C-3.83267472 33.52375117 -3.83977046 29.96012282 -3.85107422 26.39648438 C-3.86397652 22.30346442 -3.86886383 18.21046959 -3.87329102 14.11743164 C-3.8784523 12.83203995 -3.88361359 11.54664825 -3.88893127 10.2223053 C-3.88900681 9.04115646 -3.88908234 7.86000763 -3.88916016 6.64306641 C-3.89138077 5.59715836 -3.89360138 4.55125031 -3.89588928 3.47364807 C-3.72116263 0.04445189 -3.46782248 0.14183635 0 0 Z " fill="#DCBA73" transform="translate(442.775634765625,228.886474609375)"/>
<path d="M0 0 C1.47583955 0.0001591 2.95168467 0.00585225 4.42749023 0.01586914 C5.20293686 0.01728409 5.97838348 0.01869904 6.77732849 0.02015686 C9.26361893 0.02577194 11.74982059 0.03832693 14.23608398 0.05102539 C15.91772331 0.05603845 17.59936405 0.06060169 19.28100586 0.06469727 C23.41189965 0.07574626 27.54272674 0.09302094 31.67358398 0.11352539 C31.67358398 0.44352539 31.67358398 0.77352539 31.67358398 1.11352539 C20.32265044 1.84923405 9.04832306 2.25299767 -2.32641602 2.11352539 C-2.32641602 6.07352539 -2.32641602 10.03352539 -2.32641602 14.11352539 C-3.31641602 14.60852539 -3.31641602 14.60852539 -4.32641602 15.11352539 C-4.35327013 12.80108747 -4.37274443 10.48856269 -4.38891602 8.17602539 C-4.40051758 6.88825195 -4.41211914 5.60047852 -4.42407227 4.27368164 C-4.2965368 0.1466341 -4.2965368 0.1466341 0 0 Z " fill="#DBBC7A" transform="translate(31.326416015625,660.886474609375)"/>
<path d="M0 0 C0.33 0 0.66 0 1 0 C1.02687279 1.81242052 1.04633715 3.62495233 1.0625 5.4375 C1.07410156 6.44683594 1.08570313 7.45617187 1.09765625 8.49609375 C1 11 1 11 0 12 C-2.59153107 12.15996166 -5.1595202 12.25938697 -7.75390625 12.31640625 C-8.91707619 12.3475779 -8.91707619 12.3475779 -10.10374451 12.37937927 C-12.58990308 12.44495802 -15.07617045 12.50379799 -17.5625 12.5625 C-19.24415204 12.60567733 -20.92579294 12.64929136 -22.60742188 12.69335938 C-26.73816871 12.80064779 -30.86902536 12.90189132 -35 13 C-35 12.34 -35 11.68 -35 11 C-23.64753762 10.13387208 -12.38380184 9.88141873 -1 10 C-1.020625 8.906875 -1.04125 7.81375 -1.0625 6.6875 C-1 3 -1 3 0 0 Z " fill="#DDC184" transform="translate(1222,685)"/>
<path d="M0 0 C1.58206057 0.00667536 3.16410534 0.0186375 4.74609375 0.03515625 C5.55240234 0.03966797 6.35871094 0.04417969 7.18945312 0.04882812 C9.18753131 0.06065107 11.18557158 0.07858711 13.18359375 0.09765625 C13.18359375 0.75765625 13.18359375 1.41765625 13.18359375 2.09765625 C7.90359375 2.09765625 2.62359375 2.09765625 -2.81640625 2.09765625 C-2.77515625 4.18078125 -2.73390625 6.26390625 -2.69140625 8.41015625 C-2.56640625 14.72265625 -2.56640625 14.72265625 -4.81640625 18.09765625 C-4.84324937 15.28509344 -4.86316813 12.47278384 -4.87890625 9.66015625 C-4.88728516 8.85771484 -4.89566406 8.05527344 -4.90429688 7.22851562 C-4.91292055 5.18470404 -4.86868775 3.14081723 -4.81640625 1.09765625 C-3.81640625 0.09765625 -3.81640625 0.09765625 0 0 Z " fill="#D9B873" transform="translate(169.81640625,593.90234375)"/>
<path d="M0 0 C8.38011029 -0.15392039 16.64895793 0.31728707 25 1 C23.68 1.33 22.36 1.66 21 2 C21 2.66 21 3.32 21 4 C17.87354433 3.72274659 14.74927534 3.42575639 11.625 3.125 C10.73554688 3.04636719 9.84609375 2.96773437 8.9296875 2.88671875 C8.07890625 2.80292969 7.228125 2.71914063 6.3515625 2.6328125 C5.56604004 2.55949707 4.78051758 2.48618164 3.97119141 2.41064453 C2 2 2 2 0 0 Z " fill="#DBC086" transform="translate(18,699)"/>
<path d="M0 0 C0.99 0.33 1.98 0.66 3 1 C2.8864371 2.64666203 2.75882619 4.29236082 2.625 5.9375 C2.52058594 7.31228516 2.52058594 7.31228516 2.4140625 8.71484375 C2.27742187 9.46894531 2.14078125 10.22304687 2 11 C1.01 11.495 1.01 11.495 0 12 C0 8.04 0 4.08 0 0 Z " fill="#DABA76" transform="translate(537,2)"/>
<path d="M0 0 C1.67180274 0.94934513 3.33733936 1.90973313 5 2.875 C5.928125 3.40867187 6.85625 3.94234375 7.8125 4.4921875 C8.8953125 5.23855469 8.8953125 5.23855469 10 6 C10 6.66 10 7.32 10 8 C6.41726669 6.34643078 3.19026533 4.32019297 0 2 C0 1.34 0 0.68 0 0 Z " fill="#DAB870" transform="translate(1011,341)"/>
</svg>
