<?xml version="1.0" encoding="utf-8"?>
<svg viewBox="0 0 24 24" width="24" height="24" xmlns="http://www.w3.org/2000/svg">
  <defs/>
  <path fill="none" d="M0 0h24v24H0z"/>
  <path d="M 17.887 15.659 L 18.063 15.836 L 18.241 15.659 C 19.466 14.434 21.557 14.995 22.005 16.668 C 22.213 17.444 21.991 18.273 21.423 18.841 L 18.063 22.2 L 14.705 18.841 C 13.48 17.616 14.04 15.525 15.714 15.077 C 16.49 14.869 17.318 15.091 17.887 15.659 L 17.887 15.659 Z M 12.046 14 L 12.046 16 C 8.732 16 6.046 18.686 6.046 22 L 4.046 22 C 4.046 17.679 7.477 14.139 11.796 14.004 L 12.046 14 Z M 12.046 1 C 15.361 1 18.046 3.685 18.046 7 C 18.047 10.227 15.495 12.876 12.271 12.996 L 12.046 13 C 8.731 13 6.046 10.315 6.046 7 C 6.045 3.773 8.596 1.124 11.821 1.004 L 12.046 1 Z M 12.046 3 C 9.836 3 8.046 4.79 8.046 7 C 8.046 9.21 9.836 11 12.046 11 C 14.256 11 16.046 9.21 16.046 7 C 16.046 4.79 14.256 3 12.046 3 Z" style="fill: rgb(207, 170, 91);"/>
</svg>